<?xml version="1.0" encoding="UTF-8" standalone="no"?>
<!-- Created with Inkscape (http://www.inkscape.org/) -->

<svg
   width="64"
   height="64"
   viewBox="0 0 64 64"
   version="1.1"
   id="svg259"
   xmlns="http://www.w3.org/2000/svg"
   xmlns:svg="http://www.w3.org/2000/svg">
  <rect
     style="font-variation-settings:normal;fill:#cfa067;fill-opacity:1;stroke:#694641;stroke-width:4;stroke-linecap:round;stroke-linejoin:round;stroke-miterlimit:4;stroke-dasharray:none;stroke-dashoffset:0;stroke-opacity:1;paint-order:markers stroke fill;stop-color:#000000"
     id="rect12516"
     width="60"
     height="60"
     x="2"
     y="2"
     ry="14"
     rx="14" />
  <path
     style="fill:#835e59;stroke:#4b3339;stroke-width:6;stroke-linecap:round;stroke-linejoin:round;stroke-dasharray:none;stroke-opacity:1;paint-order:markers stroke fill;stop-color:#000000"
     d="m 52,14 c -1,0 -2,-1 -2,-2 V 3 h 5 c 3,0 6,3 6,6 v 5 z"
     id="path14833" />
  <path
     style="fill:#835e59;stroke:#4b3339;stroke-width:6;stroke-linecap:round;stroke-linejoin:round;stroke-dasharray:none;stroke-opacity:1;paint-order:markers stroke fill;stop-color:#000000"
     d="m 52,50 c -1,0 -2,1 -2,2 v 9 h 5 c 3,0 6,-3 6,-6 v -5 z"
     id="path14835" />
  <path
     style="fill:#835e59;stroke:#4b3339;stroke-width:6;stroke-linecap:round;stroke-linejoin:round;stroke-dasharray:none;stroke-opacity:1;paint-order:markers stroke fill;stop-color:#000000"
     d="m 12,14 c 1,0 2,-1 2,-2 V 3 H 9 C 6,3 3,6 3,9 v 5 z"
     id="path14837" />
  <path
     style="fill:#835e59;stroke:#4b3339;stroke-width:6;stroke-linecap:round;stroke-linejoin:round;stroke-dasharray:none;stroke-opacity:1;paint-order:markers stroke fill;stop-color:#000000"
     d="m 12,50 c 1,0 2,1 2,2 v 9 H 9 C 6,61 3,58 3,55 v -5 z"
     id="path14839" />
</svg>
