<?xml version="1.0" encoding="UTF-8" standalone="no"?>
<!-- Created with Inkscape (http://www.inkscape.org/) -->

<svg
   width="64"
   height="96"
   viewBox="0 0 64 96"
   version="1.1"
   id="svg259"
   xmlns="http://www.w3.org/2000/svg"
   xmlns:svg="http://www.w3.org/2000/svg">
  <path
     style="font-variation-settings:normal;vector-effect:none;fill:#4b3339;fill-opacity:1;stroke:none;stroke-width:1.05833;stroke-linecap:round;stroke-linejoin:round;stroke-miterlimit:4;stroke-dasharray:none;stroke-dashoffset:0;stroke-opacity:1;-inkscape-stroke:none;paint-order:markers stroke fill;stop-color:#000000"
     d="M 24.20796,41.91624 8.16302,76.36322 c 0,0 5.30638,13.78604 22.11062,13.78604 16.19139,0 24.21467,-16.0574 24.21467,-16.0574 L 34.9514,39.08333 Z"
     id="path4792" />
  <path
     style="font-variation-settings:normal;vector-effect:none;fill:#4b3339;fill-opacity:1;stroke:none;stroke-width:1.05833;stroke-linecap:round;stroke-linejoin:round;stroke-miterlimit:4;stroke-dasharray:none;stroke-dashoffset:0;stroke-opacity:1;-inkscape-stroke:none;paint-order:markers stroke fill;stop-color:#000000"
     d="M 17.1148,28.2539 12.56083,15.94003 c 3.63911,-0.25941 9.37455,-0.21073 12.7856,3.69385 l 10.74226,2.29599 c 3.70719,-5.14506 9.66613,-6.36509 14.36349,-6.53596 l -6.7388,13.65599 z"
     id="path5951" />
  <ellipse
     style="font-variation-settings:normal;vector-effect:none;fill:#4b3339;fill-opacity:1;stroke:none;stroke-width:1.05833;stroke-linecap:round;stroke-linejoin:round;stroke-miterlimit:4;stroke-dasharray:none;stroke-dashoffset:0;stroke-opacity:1;-inkscape-stroke:none;paint-order:markers stroke fill;stop-color:#000000"
     id="circle4794"
     cx="30.306"
     cy="33.055908"
     rx="13.982137"
     ry="13.997669" />
  <path
     style="font-variation-settings:normal;vector-effect:none;fill:#1984b6;fill-opacity:1;stroke:none;stroke-width:1.05833;stroke-linecap:round;stroke-linejoin:round;stroke-miterlimit:4;stroke-dasharray:none;stroke-dashoffset:0;stroke-opacity:1;-inkscape-stroke:none;paint-order:markers stroke fill;stop-color:#000000"
     d="M 25.13538,48.2242 11.18045,76.36872 c 0,0 2.52136,11.82985 19.3256,11.82985 16.1914,0 23.67105,-14.10944 23.67105,-14.10944 L 36.45597,47.4598 c -3.18475,3.00665 -7.32026,1.56963 -11.32059,0.7644 z"
     id="path4796" />
  <ellipse
     style="font-variation-settings:normal;vector-effect:none;fill:#1984b6;fill-opacity:1;stroke:none;stroke-width:1.05833;stroke-linecap:round;stroke-linejoin:round;stroke-miterlimit:4;stroke-dasharray:none;stroke-dashoffset:0;stroke-opacity:1;-inkscape-stroke:none;paint-order:markers stroke fill;stop-color:#000000"
     id="ellipse4798"
     cx="30.695831"
     cy="32.791748"
     rx="12.670426"
     ry="12.558393" />
  <path
     style="font-variation-settings:normal;vector-effect:none;fill:#4b3339;fill-opacity:1;stroke:none;stroke-width:1.05833;stroke-linecap:round;stroke-linejoin:round;stroke-miterlimit:4;stroke-dasharray:none;stroke-dashoffset:0;stroke-opacity:1;-inkscape-stroke:none;paint-order:markers stroke fill;stop-color:#000000"
     d="m 33.03776,32.10501 c 2.28524,-2.8126 10.84858,-0.59069 10.84858,-0.59069 l -8.48218,5.22593 -1.31351,2.30435 c 0,0 -2.52765,-5.12449 -1.05289,-6.93959 z"
     id="path4902" />
  <path
     style="font-variation-settings:normal;vector-effect:none;fill:#4b3339;fill-opacity:1;stroke:none;stroke-width:1.05833;stroke-linecap:round;stroke-linejoin:round;stroke-miterlimit:4;stroke-dasharray:none;stroke-dashoffset:0;stroke-opacity:1;-inkscape-stroke:none;paint-order:markers stroke fill;stop-color:#000000"
     d="m 27.7782,39.42871 c 0,0 2.3687,-5.3701 0.82396,-7.24546 C 26.44003,29.55837 18.438,31.38495 18.438,31.38495 l 7.5527,5.08901 z"
     id="path5119" />
  <path
     style="font-variation-settings:normal;vector-effect:none;fill:#4b3339;fill-opacity:1;stroke:none;stroke-width:1.05833;stroke-linecap:round;stroke-linejoin:round;stroke-miterlimit:4;stroke-dasharray:none;stroke-dashoffset:0;stroke-opacity:1;-inkscape-stroke:none;paint-order:markers stroke fill;stop-color:#000000"
     d="m 28.47566,48.67934 c 0.26203,12.55515 2.3044,23.68914 3.53354,35.4723 0.83556,-11.88408 2.42645,-23.33618 2.27525,-35.78459 z"
     id="path5123" />
  <path
     style="font-variation-settings:normal;vector-effect:none;fill:#4b3339;fill-opacity:1;stroke:none;stroke-width:1.05833;stroke-linecap:round;stroke-linejoin:round;stroke-miterlimit:4;stroke-dasharray:none;stroke-dashoffset:0;stroke-opacity:1;-inkscape-stroke:none;paint-order:markers stroke fill;stop-color:#000000"
     d="m 25.49884,42.5704 c 0,0 3.12423,1.7672 4.68546,1.32384 0.75973,-0.21578 1.60257,-1.74683 1.60257,-1.74683 z"
     id="path5125" />
</svg>
